<svg xmlns="http://www.w3.org/2000/svg" width="428" height="428" viewBox="0 0 428 428" fill="none">
    <path d="M0 184C0 119.594 0 87.3909 12.5343 62.7911C23.5597 41.1525 41.1525 23.5597 62.7911 12.5343C87.3909 0 119.594 0 184 0H244C308.406 0 340.609 0 365.209 12.5343C386.848 23.5597 404.44 41.1525 415.466 62.7911C428 87.3909 428 119.594 428 184V244C428 308.406 428 340.609 415.466 365.209C404.44 386.848 386.848 404.44 365.209 415.466C340.609 428 308.406 428 244 428H184C119.594 428 87.3909 428 62.7911 415.466C41.1525 404.44 23.5597 386.848 12.5343 365.209C0 340.609 0 308.406 0 244V184Z"
          fill="#ff541e"/>
    <path fill-rule="evenodd" clip-rule="evenodd"
          d="M133.837 74.6008C148.81 79.8833 157.694 89.7906 163.818 108.028C167.419 118.758 167.59 120.509 166.835 138.88C166.395 149.592 165.616 160.375 165.105 162.841L164.175 167.325L188.465 168.154C224.34 169.38 245.606 174.469 274.891 188.842C295.109 198.764 313.664 212.809 327.002 228.286C348.91 253.706 354.587 277.188 341.486 288.21C337.172 291.841 336.176 292.047 325.839 291.449C308.427 290.441 291.155 281.439 269.719 262.2C248.581 243.227 217.187 224.926 202.66 223.104L195.449 222.2L210.591 231.406C238.929 248.638 267.131 271.356 270.654 279.788C273.371 286.289 273.155 302.338 270.275 308.049C264.617 319.265 256.22 324.922 245.228 324.922C230.452 324.922 206.399 313.039 196.148 300.676C180.121 281.343 180.002 257.914 195.906 252.665C208.856 248.392 232.422 257.02 244.521 270.465C248.278 274.638 252.019 279.513 252.835 281.298C253.65 283.083 254.863 284.543 255.529 284.543C257.575 284.543 256.814 278.357 254.006 272.177C249.922 263.185 237.948 252.154 226.067 246.441C213.144 240.228 205.802 238.969 196.082 241.301C183.066 244.423 176.113 253.903 173.647 271.892C172.841 277.781 172.196 278.637 166.487 281.41C158.417 285.331 153.279 293.151 151.267 304.568C149.862 312.543 150.022 314.429 152.689 321.399C154.341 325.717 155.192 329.248 154.582 329.248C153.971 329.248 150.586 327.415 147.06 325.174C132.251 315.766 123.675 300.612 118.835 275.299C117.637 269.024 114.985 259.614 112.944 254.388C109.793 246.315 109.221 242.498 109.141 229.021C109.037 211.662 112.007 197.409 119.031 181.534L122.814 172.982L119.783 157.921C116.159 139.914 110.311 124.179 102.317 110.925C94.8167 98.4881 93.2477 93.869 94.4129 87.652C95.4599 82.0739 99.5079 77.5298 106.038 74.6037C111.76 72.0396 126.572 72.0382 133.837 74.6008ZM143.774 248.52C157.224 241.384 168.777 226.482 175.329 207.818C177.225 202.416 177.855 218.456 176.014 225.29C173.816 233.456 166.263 242.705 158.557 246.671C151.446 250.331 137.043 254.597 137.043 253.044C137.043 252.519 140.072 250.483 143.774 248.52Z"
          fill="#F9F9F9"/>
    <path d="M190.856 310.328C197.384 317.257 212.656 326.87 223.21 330.695C233.342 334.366 234.028 335.919 229.47 344.855C225.816 352.016 220.754 354.503 210.004 354.41C198.511 354.314 186.922 348.674 175.692 337.712C165.938 328.193 161.559 319.153 161.559 308.539C161.559 298.631 165.688 292.463 173.803 290.249C176.091 289.625 177.643 291.086 181.468 297.46C184.104 301.857 188.329 307.647 190.856 310.328Z"
          fill="#F9F9F9"/>
    <path d="M97.5755 209.192C94.2398 226.604 95.4512 242.091 101.664 261.469C103.572 267.418 105.899 276.178 106.835 280.937C107.773 285.696 110.422 295.364 112.723 302.422C115.025 309.48 116.574 315.587 116.167 315.995C115.759 316.402 112.784 315.864 109.555 314.798C88.7483 307.931 73.5599 274.34 77.83 244.634C79.7567 231.225 83.9777 220.126 90.2913 211.856C96.0468 204.319 98.6945 203.352 97.5755 209.192Z"
          fill="#F9F9F9"/>
    <path fill-rule="evenodd" clip-rule="evenodd"
          d="M106.758 60.8373C99.3249 63.2788 91.138 68.2412 87.5947 72.4521C79.5203 82.048 78.9089 96.0754 86.03 108.369C100.815 133.891 105.274 144.76 108.208 162.427C109.526 170.366 109.332 172.255 106.42 179.773C103.592 187.074 102.271 188.658 96.6051 191.542C77.8316 201.095 65.9125 225.52 66.0005 254.258C66.074 278.783 73.038 298.223 87.0568 313.046C97.2915 323.868 103.439 326.753 117.224 327.203C126.905 327.521 129.02 328.08 132.92 331.362C138.513 336.069 145.504 339.621 155.79 342.982C160.152 344.408 167.869 348.711 172.939 352.546C185.638 362.15 196.43 366.981 207.101 367.838C224.625 369.244 237.749 361.452 243.146 346.44C245.785 339.099 246.239 338.648 251.987 337.666C259.355 336.408 262.855 334.659 270.726 328.299C277.741 322.63 284.951 308.987 286.388 298.661L287.332 291.869L295.82 296.153C306.984 301.789 318.687 304.732 329.925 304.732C349.496 304.732 361.029 292.447 361.062 271.564C361.091 254.016 350.837 234.8 330.286 213.883C305.285 188.44 277.754 172.551 241.595 162.7C227.6 158.887 199.226 154.752 187.059 154.752H179.538L180.079 138.947C181.302 103.24 169.028 77.8096 144.79 65.8314C135.412 61.1964 132.416 60.4335 122.171 60.0716C115.677 59.8408 108.74 60.1869 106.758 60.8373ZM133.836 74.6009C148.808 79.8834 157.693 89.7907 163.816 108.028C167.417 118.758 167.589 120.509 166.833 138.88C166.393 149.592 165.615 160.375 165.104 162.841L164.174 167.325L188.464 168.154C224.339 169.38 245.605 174.469 274.89 188.842C295.108 198.764 313.662 212.809 327 228.286C348.909 253.706 354.585 277.188 341.485 288.21C337.17 291.841 336.175 292.047 325.838 291.449C308.426 290.441 291.154 281.439 269.718 262.2C248.58 243.228 217.186 224.926 202.658 223.104L195.448 222.2L210.59 231.406C238.928 248.638 267.13 271.356 270.653 279.788C273.37 286.289 273.153 302.338 270.273 308.049C264.616 319.265 256.218 324.922 245.227 324.922C230.451 324.922 206.398 313.039 196.147 300.676C180.119 281.343 180.001 257.914 195.905 252.665C208.855 248.392 232.421 257.02 244.52 270.465C248.277 274.638 252.018 279.513 252.834 281.298C253.649 283.083 254.861 284.543 255.528 284.543C257.574 284.543 256.813 278.357 254.005 272.177C249.921 263.185 237.947 252.154 226.065 246.441C213.142 240.228 205.801 238.969 196.081 241.301C183.064 244.423 176.112 253.904 173.646 271.892C172.84 277.781 172.195 278.637 166.486 281.41C158.416 285.332 153.277 293.151 151.266 304.568C149.861 312.543 150.021 314.429 152.688 321.399C154.34 325.717 155.191 329.248 154.581 329.248C153.97 329.248 150.585 327.415 147.059 325.174C132.25 315.766 123.674 300.612 118.834 275.299C117.635 269.024 114.983 259.614 112.943 254.388C109.792 246.315 109.219 242.498 109.14 229.021C109.036 211.662 112.005 197.409 119.03 181.534L122.813 172.982L119.781 157.921C116.157 139.914 110.309 124.179 102.316 110.925C94.8154 98.4881 93.2464 93.869 94.4116 87.652C95.4586 82.0739 99.5066 77.5298 106.037 74.6038C111.759 72.0397 126.571 72.0383 133.836 74.6009ZM97.5742 209.192C94.2386 226.604 95.4499 242.091 101.663 261.469C103.57 267.418 105.898 276.178 106.834 280.937C107.771 285.696 110.421 295.364 112.722 302.422C115.024 309.48 116.573 315.587 116.166 315.995C115.758 316.402 112.783 315.864 109.554 314.798C88.747 307.931 73.5586 274.34 77.8287 244.634C79.7554 231.225 83.9765 220.126 90.29 211.856C96.0455 204.319 98.6933 203.352 97.5742 209.192ZM175.327 207.818C168.776 226.482 157.223 241.384 143.772 248.52C140.07 250.483 137.042 252.519 137.042 253.044C137.042 254.597 151.444 250.331 158.555 246.671C166.262 242.705 173.815 233.456 176.012 225.29C177.854 218.456 177.224 202.416 175.327 207.818ZM190.855 310.328C197.383 317.257 212.655 326.87 223.208 330.695C233.341 334.366 234.027 335.92 229.469 344.855C225.814 352.016 220.753 354.503 210.003 354.41C198.509 354.314 186.92 348.674 175.691 337.712C165.936 328.193 161.558 319.153 161.558 308.54C161.558 298.631 165.687 292.463 173.802 290.249C176.09 289.625 177.642 291.086 181.466 297.46C184.103 301.857 188.328 307.647 190.855 310.328Z"
          fill="#0D0D0E"/>
</svg>