<svg width="200" height="200" viewBox="0 0 201 200" fill="none" xmlns="http://www.w3.org/2000/svg">
    <rect x="0.5" width="200" height="200" rx="62.5" fill="#FF541E"/>
    <path d="M72.8608 46.875H50.5001L40.8102 124.394C39.3181 136.331 48.6258 146.875 60.6558 146.875H140.344C152.374 146.875 161.682 136.331 160.19 124.394L150.5 46.875H128.139L131.678 75.0737L131.679 75.0819C133.308 88.0507 123.128 99.223 110.345 99.223H90.6546C77.8722 99.223 67.692 88.0507 69.3209 75.0819L72.8608 46.875Z" fill="#F9F9F9"/>
    <path d="M110.502 46.875H90.4981L86.6847 77.2611C86.3862 79.6303 88.2481 81.723 90.6546 81.723H110.345C112.752 81.723 114.614 79.6303 114.315 77.2611L110.502 46.875Z" fill="#F9F9F9"/>
</svg>
